<?xml version="1.0" encoding="UTF-8"?>
<svg id="Layer_2" data-name="Layer 2" xmlns="http://www.w3.org/2000/svg" viewBox="0 0 76.01 132">
  <defs>
    <style>
      .cls-1 {
        fill: #1ab592;
      }

      .cls-2 {
        fill: #6650a1;
      }
    </style>
  </defs>
  <g id="Layer_1-2" data-name="Layer 1">
    <g>
      <path class="cls-2" d="M72.05,53.32c-2.19,0-3.97-1.77-3.97-3.97v-22.69c0-10.33-8.4-18.73-18.73-18.73s-18.73,8.4-18.73,18.73v22.69c0,2.19-1.78,3.97-3.97,3.97s-3.97-1.77-3.97-3.97v-22.69C22.69,11.96,34.65,0,49.35,0s26.66,11.96,26.66,26.66v22.69c0,2.19-1.78,3.97-3.97,3.97"/>
      <path class="cls-2" d="M49.35,69.97c-2.19,0-3.97-1.77-3.97-3.97v-22.69c0-10.33-8.4-18.73-18.73-18.73S7.93,32.98,7.93,43.31v22.69c0,2.19-1.78,3.97-3.97,3.97S0,68.19,0,66v-22.69C0,28.61,11.96,16.65,26.66,16.65s26.66,11.96,26.66,26.66v22.69c0,2.19-1.78,3.97-3.97,3.97"/>
      <path class="cls-2" d="M49.36,69.97c-1.22,0-2.42-.56-3.2-1.62-1.29-1.77-.91-4.25.85-5.54l22.69-16.65c1.77-1.3,4.25-.92,5.54.85,1.29,1.77.91,4.25-.85,5.54l-22.69,16.65c-.71.52-1.53.77-2.34.77"/>
      <path class="cls-2" d="M3.97,69.97c-1.22,0-2.42-.56-3.2-1.62-1.29-1.77-.91-4.25.85-5.54l22.69-16.65c1.76-1.3,4.25-.92,5.54.85,1.29,1.77.91,4.25-.85,5.54l-22.69,16.65c-.71.52-1.53.77-2.34.77"/>
      <path class="cls-1" d="M26.66,132C11.96,132,0,120.04,0,105.34v-22.69c0-2.19,1.78-3.96,3.97-3.96s3.97,1.77,3.97,3.96v22.69c0,10.33,8.4,18.73,18.73,18.73s18.73-8.4,18.73-18.73v-22.69c0-2.19,1.78-3.96,3.97-3.96s3.97,1.77,3.97,3.96v22.69c0,14.7-11.96,26.66-26.66,26.66"/>
      <path class="cls-1" d="M49.35,115.35c-14.7,0-26.66-11.96-26.66-26.66v-22.69c0-2.19,1.78-3.97,3.97-3.97s3.97,1.77,3.97,3.97v22.69c0,10.33,8.4,18.73,18.73,18.73s18.73-8.4,18.73-18.73v-22.69c0-2.19,1.78-3.97,3.97-3.97s3.97,1.77,3.97,3.97v22.69c0,14.7-11.96,26.66-26.66,26.66"/>
      <path class="cls-1" d="M3.97,86.62c-1.22,0-2.42-.56-3.2-1.62-1.29-1.77-.91-4.25.85-5.54l22.69-16.65c1.76-1.29,4.25-.91,5.54.85,1.29,1.77.91,4.25-.85,5.54l-22.69,16.65c-.71.52-1.53.77-2.34.77"/>
      <path class="cls-1" d="M49.36,86.62c-1.22,0-2.42-.56-3.2-1.62-1.29-1.77-.91-4.25.85-5.54l22.69-16.65c1.77-1.29,4.25-.91,5.54.85,1.29,1.77.91,4.25-.85,5.54l-22.69,16.65c-.71.52-1.53.77-2.34.77"/>
    </g>
  </g>
</svg>