<?xml version="1.0" encoding="UTF-8"?>
<svg id="Layer_2" data-name="Layer 2" xmlns="http://www.w3.org/2000/svg" viewBox="0 0 149.52 184.26">
  <defs>
    <style>
      .cls-1 {
        fill: #fff;
      }

      .cls-2 {
        fill: #1ab592;
      }

      .cls-3 {
        fill: #6650a1;
      }
    </style>
  </defs>
  <g id="Layer_1-2" data-name="Layer 1">
    <g>
      <rect class="cls-1" width="149.52" height="184.26" rx="13.55" ry="13.55"/>
      <g>
        <path class="cls-3" d="M108.8,79.45c-2.19,0-3.97-1.77-3.97-3.97v-22.69c0-10.33-8.4-18.73-18.73-18.73s-18.73,8.4-18.73,18.73v22.69c0,2.19-1.78,3.97-3.97,3.97s-3.97-1.77-3.97-3.97v-22.69c0-14.7,11.96-26.66,26.66-26.66s26.66,11.96,26.66,26.66v22.69c0,2.19-1.78,3.97-3.97,3.97"/>
        <path class="cls-3" d="M86.1,96.09c-2.19,0-3.97-1.77-3.97-3.97v-22.69c0-10.33-8.4-18.73-18.73-18.73s-18.73,8.4-18.73,18.73v22.69c0,2.19-1.78,3.97-3.97,3.97s-3.97-1.77-3.97-3.97v-22.69c0-14.7,11.96-26.66,26.66-26.66s26.66,11.96,26.66,26.66v22.69c0,2.19-1.78,3.97-3.97,3.97"/>
        <path class="cls-3" d="M86.11,96.09c-1.22,0-2.42-.56-3.2-1.62-1.29-1.77-.91-4.25.85-5.54l22.69-16.65c1.77-1.3,4.25-.92,5.54.85,1.29,1.77.91,4.25-.85,5.54l-22.69,16.65c-.71.52-1.53.77-2.34.77"/>
        <path class="cls-3" d="M40.72,96.09c-1.22,0-2.42-.56-3.2-1.62-1.29-1.77-.91-4.25.85-5.54l22.69-16.65c1.76-1.3,4.25-.92,5.54.85,1.29,1.77.91,4.25-.85,5.54l-22.69,16.65c-.71.52-1.53.77-2.34.77"/>
        <path class="cls-2" d="M63.41,158.13c-14.7,0-26.66-11.96-26.66-26.66v-22.69c0-2.19,1.78-3.96,3.97-3.96s3.97,1.77,3.97,3.96v22.69c0,10.33,8.4,18.73,18.73,18.73s18.73-8.4,18.73-18.73v-22.69c0-2.19,1.78-3.96,3.97-3.96s3.97,1.77,3.97,3.96v22.69c0,14.7-11.96,26.66-26.66,26.66"/>
        <path class="cls-2" d="M86.1,141.48c-14.7,0-26.66-11.96-26.66-26.66v-22.69c0-2.19,1.78-3.97,3.97-3.97s3.97,1.77,3.97,3.97v22.69c0,10.33,8.4,18.73,18.73,18.73s18.73-8.4,18.73-18.73v-22.69c0-2.19,1.78-3.97,3.97-3.97s3.97,1.77,3.97,3.97v22.69c0,14.7-11.96,26.66-26.66,26.66"/>
        <path class="cls-2" d="M40.72,112.74c-1.22,0-2.42-.56-3.2-1.62-1.29-1.77-.91-4.25.85-5.54l22.69-16.65c1.76-1.29,4.25-.91,5.54.85,1.29,1.77.91,4.25-.85,5.54l-22.69,16.65c-.71.52-1.53.77-2.34.77"/>
        <path class="cls-2" d="M86.11,112.74c-1.22,0-2.42-.56-3.2-1.62-1.29-1.77-.91-4.25.85-5.54l22.69-16.65c1.77-1.29,4.25-.91,5.54.85,1.29,1.77.91,4.25-.85,5.54l-22.69,16.65c-.71.52-1.53.77-2.34.77"/>
      </g>
    </g>
  </g>
</svg>